<mxfile host="65bd71144e">
    <diagram id="SJIWkJbh3rr8ah0p9m4C" name="Page-1">
        <mxGraphModel dx="1226" dy="1543" grid="1" gridSize="10" guides="1" tooltips="1" connect="1" arrows="1" fold="1" page="1" pageScale="1" pageWidth="850" pageHeight="1100" math="0" shadow="0">
            <root>
                <mxCell id="0"/>
                <mxCell id="1" parent="0"/>
                <mxCell id="2" value="WeightedGraph&lt;br&gt;&lt;br&gt;- nodes: dict&lt;br&gt;&lt;br&gt;+ &lt;span class=&quot;hljs-title function_ invoke__&quot;&gt;__init__&lt;/span&gt;()&lt;br/&gt;+ &lt;span class=&quot;hljs-title function_ invoke__&quot;&gt;add_node&lt;/span&gt;(&lt;span class=&quot;hljs-attr&quot;&gt;id&lt;/span&gt;: &lt;span class=&quot;hljs-keyword&quot;&gt;int&lt;/span&gt;)&lt;br/&gt;+ &lt;span class=&quot;hljs-title function_ invoke__&quot;&gt;add_edge&lt;/span&gt;(&lt;span class=&quot;hljs-attr&quot;&gt;from_node&lt;/span&gt;: &lt;span class=&quot;hljs-keyword&quot;&gt;int&lt;/span&gt;, &lt;span class=&quot;hljs-attr&quot;&gt;to_node&lt;/span&gt;: &lt;span class=&quot;hljs-keyword&quot;&gt;int&lt;/span&gt;, &lt;span class=&quot;hljs-attr&quot;&gt;weight&lt;/span&gt;: &lt;span class=&quot;hljs-keyword&quot;&gt;int&lt;/span&gt; = &lt;span class=&quot;hljs-number&quot;&gt;1&lt;/span&gt;)" style="rounded=0;whiteSpace=wrap;html=1;align=left;verticalAlign=top;" vertex="1" parent="1">
                    <mxGeometry x="80" y="20" width="320" height="130" as="geometry"/>
                </mxCell>
                <mxCell id="3" value="" style="edgeStyle=none;html=1;" edge="1" parent="1" source="4" target="5">
                    <mxGeometry relative="1" as="geometry"/>
                </mxCell>
                <mxCell id="4" value="def __init__(self)" style="rounded=1;whiteSpace=wrap;html=1;arcSize=50;" vertex="1" parent="1">
                    <mxGeometry x="170" y="190" width="140" height="30" as="geometry"/>
                </mxCell>
                <mxCell id="5" value="define self nodes dictionary" style="rounded=0;whiteSpace=wrap;html=1;" vertex="1" parent="1">
                    <mxGeometry x="180" y="260" width="120" height="60" as="geometry"/>
                </mxCell>
                <mxCell id="6" value="" style="edgeStyle=none;html=1;entryX=0.5;entryY=0;entryDx=0;entryDy=0;" edge="1" parent="1" source="7" target="9">
                    <mxGeometry relative="1" as="geometry">
                        <mxPoint x="240" y="440" as="targetPoint"/>
                    </mxGeometry>
                </mxCell>
                <mxCell id="7" value="def add_node(self, id)" style="rounded=1;whiteSpace=wrap;html=1;arcSize=50;" vertex="1" parent="1">
                    <mxGeometry x="155" y="370" width="170" height="30" as="geometry"/>
                </mxCell>
                <mxCell id="11" value="" style="edgeStyle=none;html=1;" edge="1" parent="1" source="9" target="10">
                    <mxGeometry relative="1" as="geometry"/>
                </mxCell>
                <mxCell id="9" value="is id not in the nodes instance" style="rhombus;whiteSpace=wrap;html=1;" vertex="1" parent="1">
                    <mxGeometry x="200" y="450" width="80" height="80" as="geometry"/>
                </mxCell>
                <mxCell id="10" value="create a node object in nodes dictionary" style="rounded=0;whiteSpace=wrap;html=1;" vertex="1" parent="1">
                    <mxGeometry x="180" y="570" width="120" height="60" as="geometry"/>
                </mxCell>
                <mxCell id="12" value="true" style="text;html=1;strokeColor=none;fillColor=none;align=center;verticalAlign=middle;whiteSpace=wrap;rounded=0;" vertex="1" parent="1">
                    <mxGeometry x="250" y="530" width="60" height="30" as="geometry"/>
                </mxCell>
                <mxCell id="13" value="" style="edgeStyle=none;html=1;entryX=0.5;entryY=0;entryDx=0;entryDy=0;" edge="1" parent="1" source="14" target="16">
                    <mxGeometry relative="1" as="geometry">
                        <mxPoint x="240" y="750" as="targetPoint"/>
                    </mxGeometry>
                </mxCell>
                <mxCell id="14" value="def add_edge(self, from_node, to_node, weight=1)" style="rounded=1;whiteSpace=wrap;html=1;arcSize=50;" vertex="1" parent="1">
                    <mxGeometry x="85" y="680" width="310" height="30" as="geometry"/>
                </mxCell>
                <mxCell id="15" value="" style="edgeStyle=none;html=1;entryX=0.5;entryY=0;entryDx=0;entryDy=0;" edge="1" parent="1" source="16" target="22">
                    <mxGeometry relative="1" as="geometry">
                        <mxPoint x="240" y="880" as="targetPoint"/>
                    </mxGeometry>
                </mxCell>
                <mxCell id="20" value="" style="edgeStyle=none;html=1;" edge="1" parent="1" source="16" target="19">
                    <mxGeometry relative="1" as="geometry"/>
                </mxCell>
                <mxCell id="16" value="is from_node in nodes dictinoary" style="rhombus;whiteSpace=wrap;html=1;" vertex="1" parent="1">
                    <mxGeometry x="200" y="760" width="80" height="80" as="geometry"/>
                </mxCell>
                <mxCell id="18" value="true" style="text;html=1;strokeColor=none;fillColor=none;align=center;verticalAlign=middle;whiteSpace=wrap;rounded=0;" vertex="1" parent="1">
                    <mxGeometry x="265" y="750" width="60" height="30" as="geometry"/>
                </mxCell>
                <mxCell id="19" value="create a node object in nodes dictionary" style="rounded=0;whiteSpace=wrap;html=1;" vertex="1" parent="1">
                    <mxGeometry x="330" y="770" width="120" height="60" as="geometry"/>
                </mxCell>
                <mxCell id="21" value="" style="edgeStyle=none;html=1;" edge="1" parent="1" source="22" target="24">
                    <mxGeometry relative="1" as="geometry"/>
                </mxCell>
                <mxCell id="27" value="" style="edgeStyle=none;html=1;" edge="1" parent="1" source="22" target="26">
                    <mxGeometry relative="1" as="geometry"/>
                </mxCell>
                <mxCell id="22" value="is to_nodes in nodes dictinoary" style="rhombus;whiteSpace=wrap;html=1;" vertex="1" parent="1">
                    <mxGeometry x="200" y="900" width="80" height="80" as="geometry"/>
                </mxCell>
                <mxCell id="23" value="true" style="text;html=1;strokeColor=none;fillColor=none;align=center;verticalAlign=middle;whiteSpace=wrap;rounded=0;" vertex="1" parent="1">
                    <mxGeometry x="265" y="890" width="60" height="30" as="geometry"/>
                </mxCell>
                <mxCell id="24" value="create a node object in nodes dictionary" style="rounded=0;whiteSpace=wrap;html=1;" vertex="1" parent="1">
                    <mxGeometry x="330" y="910" width="120" height="60" as="geometry"/>
                </mxCell>
                <mxCell id="25" value="false" style="text;html=1;strokeColor=none;fillColor=none;align=center;verticalAlign=middle;whiteSpace=wrap;rounded=0;" vertex="1" parent="1">
                    <mxGeometry x="170" y="850" width="60" height="30" as="geometry"/>
                </mxCell>
                <mxCell id="26" value="add a neighbor to the from_node in the dictionary with a weight" style="rounded=0;whiteSpace=wrap;html=1;" vertex="1" parent="1">
                    <mxGeometry x="180" y="1020" width="120" height="60" as="geometry"/>
                </mxCell>
            </root>
        </mxGraphModel>
    </diagram>
</mxfile>